<svg version="1" xmlns="http://www.w3.org/2000/svg" width="933.333" height="933.333" viewBox="0 0 700.000000 700.000000"><path d="M0 350v350h700V0H0v350zm256.5-197.9c12.6 1.7 22.4 4.6 32.5 9.6 17.3 8.5 30.6 24.5 36.8 44.3 5 16 6.2 27 6.2 57.6V289h-62v-19.3c-.1-32.9-2-43.7-9.5-52.5-8.2-9.7-28.4-12.2-42.3-5.1-8.6 4.4-13.3 10.9-16.2 22.3-1.9 7.7-2 11.1-2 124.6 0 79.4.3 118.5 1.1 122.6 1.5 8.5 6.2 17.6 11.1 21.8 6.9 6 18.1 8.5 28.8 6.6 14-2.5 21-9.5 24.5-24.2 1.2-5 1.5-14.5 1.5-46.1V400h-32v-55h97v218h-49v-43.5l-3.4 8.4c-11.6 28.4-33.7 41.5-67.5 39.8-13.4-.7-23.1-3.1-34.1-8.5-5.8-2.9-9.6-5.8-17-13.2-15.4-15.4-22.4-30.2-27.7-58.5-1.5-8-1.8-21.2-2.1-119.5-.4-117.5-.1-126.6 4.3-144.7 4.9-20.4 13.1-34.9 26.8-48 12.9-12.1 30.8-20.4 50.2-23.2 8.7-1.2 35.1-1.3 44 0zm228.1 3.9c16.3 1.2 30.1 4.7 41.3 10.2 12.3 6.1 24.2 17.9 29.9 29.8 9.6 20 10.5 28.9 9.9 100.5-.4 61.6-.5 62.2-6.3 79-4.7 13.4-14.5 26.5-25.8 34.1-10.2 7-27 12.5-43.7 14.4-4.6.6-18.2 1-30.1 1H438v138h-68V155h50.8c27.9 0 56.6.5 63.8 1z"/><path d="M438.7 211.7c-.4.3-.7 36.6-.7 80.6v79.9l17.8-.4c25.2-.7 31.9-3.5 37.9-15.6l2.8-5.7.3-55.9c.2-38.1-.1-57.6-.8-61.2-2.6-12.6-11.3-19.6-26.5-21.4-10.1-1.1-29.8-1.4-30.8-.3z"/></svg>