<svg xmlns="http://www.w3.org/2000/svg" width="512" height="512" viewBox="0 0 512 512">
    <g fill="none" fill-rule="evenodd">
        <path fill="#1C1D1D" d="M0 0h512v512H0z"/>
        <path fill="#FFF" d="M171.68 292.32v-39.6h71.28V412h-36.08v-32.56c-6.6 22.44-20.68 36.08-47.96 36.08C115.8 415.52 96 381.2 96 335V190.68c0-46.64 22.44-80.52 75.24-80.52 55.44 0 71.72 30.8 71.72 74.8v26.4H197.2V181c0-18.48-7.04-29.04-25.08-29.04s-25.96 12.76-25.96 30.8v160.16c0 18.04 7.48 30.8 24.64 30.8 16.28 0 24.64-9.24 24.64-28.6v-52.8h-23.76zM270.46 412V113.68h74.36c50.6 0 69.08 25.08 69.08 66.88v62.92c0 41.8-18.48 67.32-69.08 67.32h-24.2V412h-50.16zm68.64-257.4h-18.48v117.48h18.48c17.16 0 24.64-8.36 24.64-24.64V178.8c0-16.28-7.48-24.2-24.64-24.2z"/>
    </g>
</svg>
