<svg xmlns="http://www.w3.org/2000/svg" width="69" height="10" viewBox="0 0 69 10">
    <g fill="currentColor" fill-rule="nonzero">
        <path d="M10.113 1.63l.428.347v5.762l-.428.139v1.596h2.853V7.878l-.428-.14V1.978l.428-.347V.102h-2.853zM6.19.727C5.407.241 4.409.102 3.838.102H.13v9.372h1.997V6.56h1.64c.927 0 1.854-.278 2.567-.695.642-.416 1.356-1.18 1.356-2.499.07-1.388-.785-2.221-1.498-2.638zM5.122 4.545c-.428.278-.998.348-1.355.348h-1.64V1.769h1.64c.071 0 1.997.069 1.997 1.596.071.556-.143.972-.642 1.18zM45.845 1.769l-2.852 3.887L40.14 1.77V.102h-1.997v9.372h1.997v-4.79l2.781 3.818H43.063l2.782-3.818v4.79h1.997V.102h-1.997zM52.336.102l.855 1.667-3.78 7.636h1.997l.999-1.944h3.637l.999 1.944h1.997L54.404.033h-2.068v.07zm.855 5.762l.999-2.013.998 2.013h-1.997zM66.885.102v5.346l-4.28-3.61V.102H60.68v9.372h1.926V4.198l5.848 5.276h.357V.102zM36.003.102h-2.282l-3.709 3.68h-.428V.102h-1.997v9.372h1.997V5.448h.285l3.852 4.026h2.425l-4.636-4.79zM22.523 5.448l-4.208-3.749V.102h-1.997v9.372h1.997V4.13l5.849 5.345h.356V.102h-1.997z"/>
    </g>
</svg>
